<svg width="53" height="69" viewBox="0 0 53 69" fill="none" xmlns="http://www.w3.org/2000/svg">
<path fill-rule="evenodd" clip-rule="evenodd" d="M11 0.0500031H41.41C44.3453 0.0552811 47.1589 1.22296 49.2354 3.29756C51.3119 5.37216 52.4821 8.18476 52.49 11.12V49.41C52.482 52.3466 51.3139 55.1609 49.24 57.24C49.0633 57.4237 48.8763 57.5974 48.68 57.76V67C48.6807 67.2435 48.6102 67.4819 48.4773 67.686C48.3443 67.89 48.1547 68.0507 47.9316 68.1484C47.7086 68.2462 47.4618 68.2766 47.2217 68.236C46.9816 68.1954 46.7586 68.0856 46.58 67.92L42.5 64.17C42.2689 63.9556 41.9653 63.8365 41.65 63.8365C41.3348 63.8365 41.0312 63.9556 40.8 64.17L36.91 67.84C36.7325 68.0083 36.5095 68.1208 36.2686 68.1636C36.0277 68.2064 35.7796 68.1776 35.555 68.0807C35.3303 67.9838 35.1391 67.8231 35.0049 67.6186C34.8707 67.4141 34.7994 67.1746 34.8 66.93V60.49H11C9.54625 60.4872 8.10731 60.1979 6.76548 59.6385C5.42365 59.0791 4.20526 58.2607 3.18001 57.23C1.13055 55.1445 -0.0123498 52.334 7.6232e-06 49.41V11.12C0.000831493 9.66982 0.288396 8.23411 0.846159 6.89548C1.40392 5.55685 2.22087 4.34172 3.25001 3.32C5.29811 1.24631 8.08548 0.0702235 11 0.0500031ZM48.66 51.21C48.8085 50.6214 48.8857 50.0171 48.89 49.41V12.41C48.8821 10.098 47.9595 7.88314 46.3237 6.24925C44.6879 4.61536 42.472 3.69528 40.16 3.69H12.29C9.97802 3.69528 7.76208 4.61536 6.12632 6.24925C4.49055 7.88314 3.56793 10.098 3.56001 12.41V49.41C3.56778 51.3855 4.35255 53.2785 5.74473 54.68C7.1369 56.0816 9.02466 56.879 11 56.9H34.78C39.97 56.9 46.94 58.15 48.66 51.21Z" fill="#229999"/>
<path fill-rule="evenodd" clip-rule="evenodd" d="M34.55 0.0500031H41.41C44.3472 0.0547091 47.1628 1.22338 49.24 3.3C51.3224 5.37086 52.4984 8.18319 52.51 11.12V49.41C52.5037 52.344 51.3351 55.1559 49.26 57.23C48.2379 58.2621 47.0215 59.0816 45.6811 59.6412C44.3406 60.2007 42.9026 60.4892 41.45 60.49H31V0.0500031H34.55ZM34.55 3.65H41.41C43.3897 3.65788 45.2861 4.44711 46.6869 5.84602C48.0877 7.24493 48.8795 9.14035 48.89 11.12V49.41C48.8821 51.3923 48.0918 53.2913 46.6911 54.694C45.2903 56.0967 43.3923 56.8895 41.41 56.9H34.55V3.65Z" fill="#229999"/>
<path d="M34.55 3.65H41.41C43.3897 3.65788 45.2861 4.44711 46.6869 5.84602C48.0877 7.24493 48.8795 9.14035 48.89 11.12V49.41C48.8821 51.3923 48.0918 53.2913 46.6911 54.694C45.2903 56.0967 43.3923 56.8895 41.41 56.9H34.55V3.65Z" fill="#229999"/>
</svg>
